<svg width="18" height="20" viewBox="0 0 18 20" fill="none" xmlns="http://www.w3.org/2000/svg">
<path fill-rule="evenodd" clip-rule="evenodd" d="M11.125 0.0121419C11.0813 0.00416542 11.0362 0 10.9902 0C10.9441 0 10.899 0.00416542 10.8553 0.0121419H4.59059C2.09972 0.0121419 0 2.04368 0 4.52157V15.3073C0 17.9256 2.00748 20 4.59059 20H12.5911C15.0479 20 17.0765 17.8234 17.0765 15.3073V6.07908C17.0765 5.88414 17.0015 5.69677 16.8673 5.55615L11.795 0.244307C11.6533 0.0959854 11.4577 0.0121419 11.2532 0.0121419H11.125ZM10.2391 1.52136L4.59056 1.52217C2.91669 1.52217 1.50212 2.8908 1.50212 4.5214V15.3072C1.50212 17.1005 2.84644 18.4896 4.59056 18.4896H12.591C14.1956 18.4896 15.5743 17.0104 15.5743 15.3072L15.5737 7.03052L14.697 7.03352C14.3629 7.03312 13.9829 7.03241 13.5603 7.03144C11.7882 7.02767 10.342 5.63128 10.2443 3.87352L10.2391 3.68385V1.52136ZM14.7515 5.52109L13.5636 5.52125C12.5566 5.51911 11.7412 4.69715 11.7412 3.68385V2.36874L14.7515 5.52109Z" fill="white"/>
<path d="M4.97333 9.23621H9.94664" stroke="white" stroke-width="2"/>
<path d="M4.97333 12.078H12.0781" stroke="white" stroke-width="2"/>
</svg>
